<svg xmlns="http://www.w3.org/2000/svg" viewBox="0 0 88.33 104.5"><defs><style>.cls-1{fill:none;stroke:#fff;stroke-miterlimit:10;stroke-width:0.25px;opacity:0.65;}.cls-2{font-size:22px;fill:#fff;font-family:BerlinSansFB-Reg, Berlin Sans FB;}</style></defs><title>logo-mobile</title><g id="Layer_3" data-name="Layer 3"><path class="cls-1" d="M-60.54,43.13l81.87,2.25s2-3.13,3.17-3.38a8.48,8.48,0,0,1,3.83,0c.8.33,2.67,1.83,3.67,1.83s2.17-.12,2.25-.66,0-.82,0-1.39S17.33,4.83,17.33,4.83s-.45-1.75.92-1.75,1.54.54,2.08,1.5,16.34,37,16.34,37,1.08,1.21,1.75.92c0,0,3,.37,1.5-2.25,0,0-12.13-24.33-11.59-24.92s2.55-2.91,4.25.75S43.5,40.17,43.5,40.17s1.46,1.71,2.5.75,0-2.67,0-2.67L39.5,23.5s-.92-1.83.67-2a1.94,1.94,0,0,1,2.08.92s7,17.12,7,17.5a2.9,2.9,0,0,0,2.83,1.33c1.5-.21,1.71-.58,1.5-1.75s-1.12-4.33-1.08-5.67.42-5.16.42-5.16,0-.75.73-.59.89.75.85,2.67-.75,8.21,1.75,6.92c0,0,.79-.3.67-1.92s-1.25-5.58-.5-6.67,1.37-.83,1.75-.16.29,7.45.58,8.08.92,1.29,1.42,1.25,1.25.33,1.08-2.25a56.18,56.18,0,0,1-.33-6.58.86.86,0,0,1,1.58-.34c.63.75,1,7.67,1,7.67s0,2-.67,2.67-3.12.33-3.66,1.08-.54.83.41,1.33,7.67.75,16.59-.66,10-1,10.08-.42,2,2.13-6.08,2.67-13-.09-13.42,1.08A1.63,1.63,0,0,0,68,46.58c.54,0,28.92-2.87,29.08-2.66s3.71,1.37-1.91,2.08-25.84,2-26.42,2.75S67.5,51,70.25,50.92s49.13-5.92,50.83-5.59,2,.29,1.59,1.25-3.29.75-4.92,1.17S70,52.67,70,52.67s-2.08.54-.83,1.5,31-2.92,31-2.92,2.41-.42,2.16.75.17.92-3.5,1.33-27.95,2.3-28.25,2.92-.45,1-.08,1.42,20-1.92,20-1.92,2.25,0,1.92.92-1.75,1.21-5.92,1.5S65,60.29,64.92,60.58s-2.17.59-.67,1.34,8,1.54,8.92,4.25-.09,3.58-4.5-.34-3-.37-2.84-.33,4.38,3.29,4.59,3.42,1.33.91.66,1.5-1.45,1.21-5.08-2.5c0,0-1.37-.71-1.83.41s2.16,3,2.16,3,1.75,1,1.67,1.75a2,2,0,0,1-.75,1.42c-.25.13-1.62.29-4.5-2.83l-2.87-3.13s-2.34-8.41-2.63-9.62-5.37-1.67-5.58-.67A5.3,5.3,0,0,0,51.58,60L54,72.75s.75,2.29-.25,2.67-1.79-.13-2.5-4.25-2.87-14-3.08-15.67-2.34-1.5-2.34-.25,5,29.08,5,29.08.75,1.8-.33,2.17-1.87.21-2.25-1.08S44.08,58,44,57.67s-.62-2.38-1.67-2.09-.7,1.25-.66,1.5,8.16,44.42,8.16,44.42-1.91,2.83-2.75-2.67-7.87-43-7.91-43.33-1-2-6.5-3.5S25,49.67,23.33,48.75s-1.45-1.58-5.25-1.42-79.16-2.16-79.16-2.16S-61.71,43.67-60.54,43.13Z"/></g><g id="Layer_2" data-name="Layer 2"><text class="cls-2" transform="translate(10.11 50.99)">NAZCA <tspan x="7.23" y="18">LINES</tspan></text></g></svg>