<svg xmlns="http://www.w3.org/2000/svg" viewBox="0 0 173.67 104.5"><defs><style>.cls-1{fill:none;stroke:#fff;stroke-miterlimit:10;stroke-width:0.25px;opacity:0.65;}.cls-2{font-size:22px;fill:#fff;font-family:BerlinSansFB-Reg, Berlin Sans FB;}</style></defs><title>logo</title><g id="Layer_3" data-name="Layer 3"><path class="cls-1" d="M-12.38,43.13,69.5,45.38s2-3.13,3.17-3.38a8.48,8.48,0,0,1,3.83,0c.79.33,2.67,1.83,3.67,1.83s2.16-.12,2.25-.66,0-.82,0-1.39S65.5,4.83,65.5,4.83s-.46-1.75.92-1.75,1.54.54,2.08,1.5,16.33,37,16.33,37,1.09,1.21,1.75.92c0,0,3,.37,1.5-2.25,0,0-12.12-24.33-11.58-24.92s2.54-2.91,4.25.75S91.67,40.17,91.67,40.17s1.46,1.71,2.5.75,0-2.67,0-2.67L87.67,23.5s-.92-1.83.66-2a2,2,0,0,1,2.09.92s7,17.12,7,17.5a2.9,2.9,0,0,0,2.83,1.33c1.5-.21,1.71-.58,1.5-1.75s-1.12-4.33-1.08-5.67.41-5.16.41-5.16.06-.75.74-.59.89.75.85,2.67-.75,8.21,1.75,6.92c0,0,.79-.3.66-1.92s-1.25-5.58-.5-6.67,1.38-.83,1.75-.16.3,7.45.59,8.08.91,1.29,1.41,1.25,1.25.33,1.09-2.25a59.28,59.28,0,0,1-.34-6.58.86.86,0,0,1,1.59-.34c.62.75,1,7.67,1,7.67s0,2-.67,2.67-3.12.33-3.67,1.08-.54.83.42,1.33,7.67.75,16.58-.66,10-1,10.09-.42,2,2.13-6.09,2.67-13-.09-13.41,1.08a1.63,1.63,0,0,0,1.25,2.08c.54,0,28.91-2.87,29.08-2.66S149,45.29,143.33,46s-25.83,2-26.41,2.75-1.25,2.21,1.5,2.17,49.12-5.92,50.83-5.59,2,.29,1.58,1.25-3.29.75-4.91,1.17-47.75,4.92-47.75,4.92-2.09.54-.84,1.5,31-2.92,31-2.92,2.42-.42,2.17.75.17.92-3.5,1.33-28,2.3-28.25,2.92-.46,1-.08,1.42,20-1.92,20-1.92,2.25,0,1.91.92-1.75,1.21-5.91,1.5-21.5,2.12-21.59,2.41-2.16.59-.66,1.34,8,1.54,8.91,4.25-.08,3.58-4.5-.34-3-.37-2.83-.33,4.38,3.29,4.58,3.42,1.34.91.67,1.5-1.46,1.21-5.08-2.5c0,0-1.38-.71-1.84.41s2.17,3,2.17,3,1.75,1,1.67,1.75a2.06,2.06,0,0,1-.75,1.42c-.25.13-1.63.29-4.5-2.83L108,68.54s-2.33-8.41-2.62-9.62-5.38-1.67-5.59-.67A5.44,5.44,0,0,0,99.75,60l2.42,12.75s.75,2.29-.25,2.67-1.79-.13-2.5-4.25-2.88-14-3.09-15.67S94,54,94,55.25s5,29.08,5,29.08.75,1.8-.33,2.17-1.88.21-2.25-1.08S92.25,58,92.17,57.67s-.63-2.38-1.67-2.09-.71,1.25-.67,1.5S98,101.5,98,101.5s-1.92,2.83-2.75-2.67-7.87-43-7.92-43.33-1-2-6.5-3.5-7.62-2.33-9.33-3.25S70,47.17,66.25,47.33s-79.17-2.16-79.17-2.16S-13.54,43.67-12.38,43.13Z"/></g><g id="Layer_2" data-name="Layer 2"><text class="cls-2" transform="translate(23.17 53.99)">NAZCA LINES</text></g></svg>